HIERARCHY
ROOT Hips
{
	OFFSET 0.00000 0.00000 0.00000
	CHANNELS 6 Xposition Yposition Zposition Zrotation Yrotation Xrotation 
	JOINT LHipJoint
	{
		OFFSET 0 0 0
		CHANNELS 3 Zrotation Yrotation Xrotation
		JOINT LeftHip
		{
			OFFSET 1.74857 -1.85566 0.69197
			CHANNELS 3 Zrotation Yrotation Xrotation
			JOINT LeftKnee
			{
				OFFSET 2.40003 -6.59403 0.00000
				CHANNELS 3 Zrotation Yrotation Xrotation
				JOINT LeftAnkle
				{
					OFFSET 2.82169 -7.75254 0.00000
					CHANNELS 3 Zrotation Yrotation Xrotation
					JOINT LeftToe
					{
						OFFSET 0.16466 -0.45240 2.26890
						CHANNELS 3 Zrotation Yrotation Xrotation
						End Site
						{
							OFFSET 0.00000 -0.00000 1.16486
						}
					}
				}
			}
		}
	}
	JOINT RHipJoint
	{
		OFFSET 0 0 0
		CHANNELS 3 Zrotation Yrotation Xrotation
		JOINT RightHip
		{
			OFFSET -1.64169 -1.85566 0.69197
			CHANNELS 3 Zrotation Yrotation Xrotation
			JOINT RightKnee
			{
				OFFSET -2.41814 -6.64379 0.00000
				CHANNELS 3 Zrotation Yrotation Xrotation
				JOINT RightAnkle
				{
					OFFSET -2.80588 -7.70911 0.00000
					CHANNELS 3 Zrotation Yrotation Xrotation
					JOINT RightToe
					{
						OFFSET -0.19098 -0.52472 2.25401
						CHANNELS 3 Zrotation Yrotation Xrotation
						End Site
						{
							OFFSET -0.00000 -0.00000 1.16333
						}
					}
				}
			}
		}
	}
	JOINT lowerback
	{
		OFFSET 0 0 0
		CHANNELS 3 Zrotation Yrotation Xrotation
		JOINT Chest
		{
			OFFSET -0.02828 2.14690 -0.11061
			CHANNELS 3 Zrotation Yrotation Xrotation
			JOINT Chest2
			{
				OFFSET -0.00167 2.15299 0.00759
				CHANNELS 3 Zrotation Yrotation Xrotation
				JOINT lowerneck
				{
					OFFSET 0 0 0
					CHANNELS 3 Zrotation Yrotation Xrotation
					JOINT Neck
					{
						OFFSET -0.09296 1.90118 0.07197
						CHANNELS 3 Zrotation Yrotation Xrotation
						JOINT Head
						{
							OFFSET 0.08490 1.89526 -0.24604
							CHANNELS 3 Zrotation Yrotation Xrotation
							End Site
							{
								OFFSET 0.03186 1.92109 -0.09483
							}
						}
					}
				}
				JOINT LeftCollar
				{
					OFFSET 0 0 0
					CHANNELS 3 Zrotation Yrotation Xrotation
					JOINT LeftShoulder
					{
						OFFSET 3.21569 1.44644 -0.03720
CHANNELS 3 Zrotation Xrotation Yrotation
						JOINT LeftElbow
						{
OFFSET 0 -5.476510 -0.000000
CHANNELS 3 Zrotation Xrotation Yrotation
							JOINT LeftWrist
							{
OFFSET 0 -3.090580 -0.000000
CHANNELS 3 Zrotation Xrotation Yrotation
								JOINT lhand
								{
									OFFSET 0 0 0
CHANNELS 3 Zrotation Xrotation Yrotation
									JOINT LFingers
									{
OFFSET 0 -0.771610 -0.000000
CHANNELS 3 Zrotation Xrotation Yrotation
										End Site
										{
OFFSET 0 -0.622090 -0.000000
										}
									}
								}
								JOINT LThumb
								{
OFFSET 0 0.000000 0.000000
CHANNELS 3 Zrotation Xrotation Yrotation
									End Site
									{
OFFSET 0 -0.631590 0.631590
									}
								}
							}
						}
					}
				}
				JOINT RightCollar
				{
					OFFSET 0 0 0
					CHANNELS 3 Zrotation Yrotation Xrotation
					JOINT RightShoulder
					{
						OFFSET -3.38693 1.28904 -0.07093
CHANNELS 3 Zrotation Xrotation Yrotation
						JOINT RightElbow
						{
OFFSET 0 -5.141820 -0.000000
CHANNELS 3 Zrotation Xrotation Yrotation
							JOINT RightWrist
							{
OFFSET 0 -3.355650 -0.000000
CHANNELS 3 Zrotation Xrotation Yrotation
								JOINT rhand
								{
									OFFSET 0 0 0
CHANNELS 3 Zrotation Xrotation Yrotation
									JOINT RFingers
									{
OFFSET 0 -0.801040 -0.000000
CHANNELS 3 Zrotation Xrotation Yrotation
										End Site
										{
OFFSET 0 -0.645820 -0.000000
										}
									}
								}
								JOINT RThumb
								{
OFFSET 0 0.000000 0.000000
CHANNELS 3 Zrotation Xrotation Yrotation
									End Site
									{
OFFSET 0 -0.655680 0.655680
									}
								}
							}
						}
					}
				}
			}
		}
	}
}
MOTION
Frames: 11
Frame Time: 0.008333333333333333
1.507956 17.991252 -0.570472 5.777985 -29.506837 0.302255 0.000000 0.000000 0.000000 -31.425785 4.956472 -5.073218 0.571460 4.841353 13.456655 0.829609 15.173169 -28.551162 0.001380 -0.237689 -0.653192 0.000000 0.000000 0.000000 6.419071 19.103476 -12.820778 -1.803897 -8.444947 24.073960 -0.397884 0.771641 -11.669472 -0.808384 5.738078 -16.026233 -6.388528 3.740551 4.761735 -1.784206 4.781671 5.033065 1.569936 2.211471 2.184823 -5.106358 -1.054549 2.462670 8.059576 -2.798171 20.454994 3.309263 -1.271212 5.917672 0.000000 0.000000 0.000000 19.715206 7.461309 -60.432987 113.280300 -57.849700 80.015800 8.581566 -2.412918 -21.322279 0.000000 0.000000 0.000000 -7.125000 0.000000 0.000000 -19.967481 50.426814 2.766620 0.000000 0.000000 0.000000 -35.351096 -16.184910 4.816206 -77.613119 -59.412023 -49.293804 -23.484455 -65.112961 -10.237225 0.000000 0.000000 0.000000 7.125000 0.000000 0.000000 2.507933 18.846116 1.564845
1.588604 17.990760 -0.614956 6.335012 -28.516085 1.364526 0.000000 0.000000 0.000000 -32.177984 3.691602 -6.396184 0.572481 4.845647 13.468841 0.832750 14.545737 -27.931542 0.002832 0.343352 0.943458 0.000000 0.000000 0.000000 5.003652 19.253240 -14.680765 -1.882761 -8.617493 24.605940 -0.397120 0.091101 -11.873104 -0.837919 5.839068 -16.318179 -5.519323 3.434498 5.311785 -1.477492 4.347140 4.778265 1.382646 2.034524 1.676389 -4.963673 -1.621982 1.410693 6.282928 -2.998249 16.586415 2.665207 -1.451585 4.890703 0.000000 0.000000 0.000000 19.270470 8.949956 -60.722561 113.424242 -57.821692 80.137587 8.632603 -2.326442 -21.585784 0.000000 0.000000 0.000000 -7.125000 0.000000 0.000000 -20.045243 50.682910 2.907974 0.000000 0.000000 0.000000 -24.079971 -6.499642 14.011469 -96.729587 -59.828150 -65.824587 -22.119565 -59.904006 -11.167044 0.000000 0.000000 0.000000 7.125000 0.000000 0.000000 3.505700 17.963901 2.257777
1.566319 17.949880 -0.694901 6.787674 -29.059742 0.452784 0.000000 0.000000 0.000000 -32.339012 4.654347 -7.021548 0.691480 5.315922 14.811805 0.891848 14.158691 -27.972008 0.000660 -0.139780 -0.384160 0.000000 0.000000 0.000000 4.905365 19.554178 -14.961595 -2.067058 -9.004397 25.809190 -0.423400 0.641067 -12.083973 -0.786462 5.661328 -15.804963 -5.954106 3.009160 5.426166 -1.408504 3.756082 4.788171 1.716597 1.727022 1.631880 -5.051348 -1.612193 1.716516 5.704026 -2.915849 16.460145 2.503563 -1.456495 4.792669 0.000000 0.000000 0.000000 19.511483 7.992300 -59.097845 113.133616 -57.878025 79.891500 8.989013 -2.047527 -21.418969 0.000000 0.000000 0.000000 -7.125000 0.000000 0.000000 -19.630809 50.581801 2.793568 0.000000 0.000000 0.000000 -26.439300 -8.496214 14.902720 -99.163219 -59.680284 -67.927067 -22.997346 -57.868292 -12.645517 0.000000 0.000000 0.000000 7.125000 0.000000 0.000000 2.956049 16.294057 2.010620
1.511651 17.946999 -0.778183 7.049726 -29.421935 0.265094 0.000000 0.000000 0.000000 -32.288817 4.656442 -7.255702 0.703102 5.359501 14.936929 0.905011 14.300328 -28.207765 0.000604 -0.153274 -0.421102 0.000000 0.000000 0.000000 4.896382 19.765133 -15.333217 -2.099527 -9.070381 26.015765 -0.413344 0.944989 -11.850896 -0.829427 5.809997 -16.234313 -6.214930 3.172825 5.605630 -1.555685 3.954088 4.959911 1.694210 1.814692 1.692386 -5.254986 -1.629768 1.326271 5.409956 -2.851682 16.046178 2.442718 -1.444425 4.728122 0.000000 0.000000 0.000000 19.703121 7.853494 -59.984047 113.762929 -57.754974 80.424166 8.468597 -2.536671 -21.522379 0.000000 0.000000 0.000000 -7.125000 0.000000 0.000000 -20.168707 50.597464 2.883637 0.000000 0.000000 0.000000 -25.932635 -8.264391 14.854905 -99.676592 -59.643201 -68.370110 -23.633695 -57.570749 -12.757784 0.000000 0.000000 0.000000 7.125000 0.000000 0.000000 2.521942 16.106261 1.725005
1.480410 17.919826 -0.938894 7.828186 -28.996522 0.490906 0.000000 0.000000 0.000000 -32.660312 3.997955 -9.039888 0.836670 5.835016 16.306550 0.911878 13.845035 -27.809016 0.000344 -0.116493 -0.320063 0.000000 0.000000 0.000000 3.832922 19.373642 -19.246549 -2.782099 -10.333622 30.063991 -0.381405 1.734162 -11.192176 -0.970190 6.270741 -17.572010 -6.812652 3.220472 6.904321 -1.962071 3.872938 5.053360 1.540341 1.776731 1.071592 -5.416191 -1.833180 1.015944 5.646984 -3.056684 14.372919 2.526418 -1.533390 4.285437 0.000000 0.000000 0.000000 21.050127 7.353874 -60.794889 114.053626 -57.696804 80.669953 8.137919 -2.782726 -21.703887 0.000000 0.000000 0.000000 -7.125000 0.000000 0.000000 -20.566742 50.715668 3.006344 0.000000 0.000000 0.000000 -26.676527 -8.045528 15.189342 -100.132692 -59.608466 -68.763585 -24.284169 -58.460305 -13.259803 0.000000 0.000000 0.000000 7.125000 0.000000 0.000000 2.103071 15.491377 1.466022
1.159711 17.932059 -1.161663 8.684343 -25.439155 1.234871 0.000000 0.000000 0.000000 -32.149904 2.243889 -9.612747 0.829536 5.810480 16.235589 0.602512 13.482456 -25.042217 0.060215 -1.583301 -4.355445 0.000000 0.000000 0.000000 3.534614 17.877225 -21.688488 -3.314225 -11.187121 32.913595 -0.421446 1.367198 -11.864074 -0.921492 6.115566 -17.120163 -8.347251 2.831885 8.917281 -2.355853 3.053052 5.191592 1.952372 1.361739 0.130285 -5.336416 -2.273139 0.311952 5.949261 -3.532360 11.924088 2.695039 -1.746244 3.875535 0.000000 0.000000 0.000000 25.384146 4.662087 -61.372056 115.932797 -57.299739 82.254856 7.351172 -3.302817 -21.637879 0.000000 0.000000 0.000000 -7.125000 0.000000 0.000000 -21.270671 50.530252 3.017451 0.000000 0.000000 0.000000 -27.195704 -6.779198 15.115894 -100.702516 -59.562703 -69.254999 -23.347825 -57.346135 -13.290419 0.000000 0.000000 0.000000 7.125000 0.000000 0.000000 2.748190 15.562819 1.912372
0.492055 17.839366 -1.446915 5.937067 -17.000504 3.620466 0.000000 0.000000 0.000000 -26.207436 -0.641642 -16.681710 2.205186 9.278235 26.671737 0.906231 7.564165 -22.253202 0.428475 -4.200707 -11.642012 0.000000 0.000000 0.000000 8.911394 14.157387 -21.119001 -3.220268 -11.043376 32.426307 -0.620617 -3.148470 -16.356552 -0.599846 4.957893 -13.788534 -2.560670 2.279197 11.666886 -0.909297 2.693842 6.143455 0.183073 1.284004 -0.190655 -6.570778 -3.246145 1.372000 3.657111 -4.498341 6.671553 2.245726 -2.324363 2.143682 0.000000 0.000000 0.000000 27.853145 -1.745630 -64.031737 111.627224 -58.156651 78.613767 6.383484 -3.153299 -20.893962 0.000000 0.000000 0.000000 -7.125000 0.000000 0.000000 -21.807201 49.690178 2.633404 0.000000 0.000000 0.000000 -33.671508 -1.842249 24.655941 -95.251857 -59.895488 -64.546601 -22.168584 -49.675712 -13.674690 0.000000 0.000000 0.000000 7.125000 0.000000 0.000000 3.577661 15.279060 2.513486
-0.066449 17.747415 -1.672645 4.665498 -7.615444 4.464318 0.000000 0.000000 0.000000 -20.206618 -4.079000 -27.006111 5.201583 13.607054 41.686009 0.485784 -0.806958 -12.910500 0.682929 -5.282848 -14.717250 0.000000 0.000000 0.000000 12.336342 9.222082 -22.714929 -3.683022 -11.726139 34.770056 -0.633684 -6.784824 -19.015386 -0.804125 5.722799 -15.982371 0.491007 2.064155 11.853476 0.781414 2.771508 5.557521 0.192727 1.373515 -0.850723 -6.376969 -3.229200 1.758595 3.977786 -4.413804 -0.091495 2.367230 -2.221492 -0.086834 0.000000 0.000000 0.000000 33.292529 -9.765372 -76.435860 115.445272 -57.406269 81.844404 -1.045534 -12.074290 -20.381046 0.000000 0.000000 0.000000 -7.125000 0.000000 0.000000 -28.253387 48.149614 2.373541 0.000000 0.000000 0.000000 -48.814045 -3.802398 58.800082 -94.377906 -59.926202 -63.790389 -14.595998 -43.359712 -17.348599 0.000000 0.000000 0.000000 7.125000 0.000000 0.000000 8.801129 12.246681 6.816836
-0.033487 18.031745 -1.187670 3.768237 -4.952901 4.475146 0.000000 0.000000 0.000000 -21.248248 -4.449085 -15.823986 2.296105 9.456936 27.235840 0.657542 1.546312 -15.954185 0.533127 -4.678180 -12.992958 0.000000 0.000000 0.000000 13.887276 8.262839 -14.646483 -2.039955 -8.948711 25.635153 -0.382121 -9.729228 -18.981946 -0.294695 3.490414 -9.647244 -0.458936 2.924480 7.459169 -0.800151 3.827054 1.752487 -0.923424 1.905691 -2.338522 -4.827268 -2.937542 2.995230 6.354988 -3.687007 -9.667942 3.130554 -1.912176 -3.475573 0.000000 0.000000 0.000000 29.734738 -1.910362 -72.031103 107.242975 -58.846220 74.874991 1.739390 -12.088713 -20.065836 0.000000 0.000000 0.000000 -7.125000 0.000000 0.000000 -25.621160 48.259325 2.195544 0.000000 0.000000 0.000000 -49.334820 -15.051859 60.457549 -147.576909 -42.879219 -106.971193 -4.377744 -55.692540 -15.637476 0.000000 0.000000 0.000000 7.125000 0.000000 0.000000 15.572632 14.680083 11.560339
0.380273 18.013541 -1.361093 3.544341 -1.481986 5.081241 0.000000 0.000000 0.000000 -22.906618 -5.105649 -13.096732 1.304522 7.235551 20.414992 0.625482 1.122983 -15.387474 0.283975 -3.427031 -9.470027 0.000000 0.000000 0.000000 12.326680 7.001214 -17.134867 -2.401004 -9.655400 27.868188 -0.283184 -10.228945 -18.392106 -0.354634 3.823806 -10.581825 -1.651873 3.453143 7.938131 -1.704855 4.376035 0.504914 -1.328996 2.184077 -3.908805 -3.994096 -4.040491 2.483304 7.677589 -4.873509 -11.972685 3.174551 -2.610440 -3.663409 0.000000 0.000000 0.000000 30.999553 -30.094132 -68.585655 129.044751 -53.373461 93.061099 -5.410182 -41.502325 -23.641608 0.000000 0.000000 0.000000 -7.125000 0.000000 0.000000 -33.988977 50.306329 4.948405 0.000000 0.000000 0.000000 -48.308431 -39.979274 18.240460 -126.939997 -54.144487 -91.359958 1.982461 -62.828591 -14.126360 0.000000 0.000000 0.000000 7.125000 0.000000 0.000000 19.842374 16.326279 14.360947
0.525859 17.723223 -2.021557 4.135308 -2.262528 3.608267 0.000000 0.000000 0.000000 -23.540535 -3.985782 -20.072504 2.686494 10.169142 29.526397 0.764197 -1.667012 -16.034768 0.215126 -2.985912 -8.239395 0.000000 0.000000 0.000000 9.528377 8.700162 -23.252961 -4.132620 -12.334816 36.927070 -0.587211 -5.450906 -17.485720 -0.470056 4.397365 -12.197298 -1.650020 3.620115 12.590271 -0.066436 4.572552 4.722325 0.203395 2.259603 -2.211521 -5.934270 -4.969425 1.694002 5.144029 -6.733006 0.417870 2.649470 -3.387105 0.241742 0.000000 0.000000 0.000000 36.361633 -59.383896 -45.532388 128.465222 -53.596049 92.595286 -3.967950 -50.958730 -24.208248 0.000000 0.000000 0.000000 -7.125000 0.000000 0.000000 -33.078369 51.014333 5.408837 0.000000 0.000000 0.000000 -46.596463 -59.278960 10.228638 -32.205863 -42.706977 -12.881558 -6.990805 -49.980602 -18.489042 0.000000 0.000000 0.000000 7.125000 0.000000 0.000000 13.760534 11.757745 10.997640
